<?xml version="1.0" encoding="UTF-8" standalone="no"?>
<!-- Created with Inkscape (http://www.inkscape.org/) -->
<svg
   xmlns:dc="http://purl.org/dc/elements/1.1/"
   xmlns:cc="http://creativecommons.org/ns#"
   xmlns:rdf="http://www.w3.org/1999/02/22-rdf-syntax-ns#"
   xmlns:svg="http://www.w3.org/2000/svg"
   xmlns="http://www.w3.org/2000/svg"
   xmlns:xlink="http://www.w3.org/1999/xlink"
   xmlns:sodipodi="http://sodipodi.sourceforge.net/DTD/sodipodi-0.dtd"
   xmlns:inkscape="http://www.inkscape.org/namespaces/inkscape"
   id="svg2602"
   sodipodi:version="0.32"
   inkscape:version="0.46"
   width="386"
   height="388"
   version="1.0"
   sodipodi:docname="myworld.svg"
   inkscape:output_extension="org.inkscape.output.svg.inkscape">
  <metadata
     id="metadata2607">
    <rdf:RDF>
      <cc:Work
         rdf:about="">
        <dc:format>image/svg+xml</dc:format>
        <dc:type
           rdf:resource="http://purl.org/dc/dcmitype/StillImage" />
      </cc:Work>
    </rdf:RDF>
  </metadata>
  <defs
     id="defs2605">
    <inkscape:perspective
       sodipodi:type="inkscape:persp3d"
       inkscape:vp_x="0 : 526.18109 : 1"
       inkscape:vp_y="0 : 1000 : 0"
       inkscape:vp_z="744.09448 : 526.18109 : 1"
       inkscape:persp3d-origin="372.04724 : 350.78739 : 1"
       id="perspective2609" />
  </defs>
  <sodipodi:namedview
     inkscape:window-height="669"
     inkscape:window-width="640"
     inkscape:pageshadow="2"
     inkscape:pageopacity="0.0"
     guidetolerance="10.0"
     gridtolerance="10.0"
     objecttolerance="10.0"
     borderopacity="1.0"
     bordercolor="#666666"
     pagecolor="#ffffff"
     id="base"
     showgrid="false"
     inkscape:zoom="1.1907216"
     inkscape:cx="193"
     inkscape:cy="194"
     inkscape:window-x="150"
     inkscape:window-y="61"
     inkscape:current-layer="svg2602" />
  <image
     xlink:href="myworld.jpg"
     sodipodi:absref="C:\Users\biohazzard\SVG Files\Yo, Make me!\myworld.jpg"
     width="386"
     height="388"
     id="image2611"
     x="0"
     y="0" />
  <path
     style="fill:#000000"
     d="M 170.32524,386.90453 C 136.6706,382.98312 103.1876,369.29452 75.5,348.13784 C 67.247246,341.83173 50.955729,325.96643 43.931049,317.39479 C 15.582668,282.80356 -0.011163985,238.89164 0.0046055729,193.69878 C 0.0093022413,180.23894 2.4270793,160.01168 5.4770797,147.91576 C 18.719741,95.397036 52.129215,51.122735 98.283278,24.928804 C 178.21334,-20.434105 279.69795,-2.0521085 338.83417,68.5 C 380.1339,117.77238 394.60771,184.21043 377.54792,246.20475 C 354.38224,330.38757 277.69105,388.6894 191.19878,387.87026 C 183.66445,387.79891 174.27136,387.36433 170.32524,386.90453 z M 259.75481,372.45478 C 278.89239,365.48219 299.92932,352.75251 318.8623,336.6882 C 332.85801,324.81308 347.10404,306.88363 359.48591,285.56106 C 367.13161,272.39453 367.72744,269.7183 363.6947,266.65669 C 360.92012,264.55025 360.85442,264.54757 357.6947,266.41199 C 351.58421,270.01755 343.49194,273.97474 342.20349,273.98733 C 341.49041,273.9943 340.14557,272.67333 339.21497,271.05184 C 335.88567,265.25088 330.03181,264.53229 322.5,269 C 316.35875,272.64286 315.45166,272.67095 310.59208,269.36878 L 306.71989,266.73756 L 302.33319,268.86878 C 296.57606,271.66581 295.229,271.56108 293.27987,268.16493 L 291.65277,265.32987 L 284.57639,268.84136 C 280.68437,270.77268 275.48466,272.61096 273.02146,272.92643 C 269.1032,273.42825 268.43644,273.8753 267.69174,276.5 C 267.22358,278.15 266.37497,280.85 265.80592,282.5 C 263.67121,288.68985 263.7036,290.67899 265.9649,292.26286 L 268.12054,293.77273 L 264.39138,299.63637 C 260.5207,305.72254 256.55367,310.64935 246.70517,321.60163 C 243.13637,325.57041 241.19178,328.51728 241.64299,329.27296 C 242.04594,329.94783 245.26902,333.73692 248.8054,337.69317 C 255.3436,345.00763 258.71787,347 264.56744,347 C 274.28539,347 273.31935,349.95735 258.75,364.80907 C 252.0125,371.67715 247.4,376.96578 248.5,376.56159 C 249.6,376.15739 254.66466,374.30933 259.75481,372.45478 z M 252,294 C 254.37476,291.62524 254.81226,289.08099 252.51851,290.98464 C 251.33298,291.96854 250.02263,291.8494 245.95935,290.38827 C 243.16663,289.38402 240.41449,287.99943 239.84348,287.3114 C 239.27246,286.62337 238.67717,283.19144 238.52059,279.68489 C 238.16674,271.76004 236.91825,269.34071 232.75832,268.51876 C 223.51726,266.69283 222.42759,265.16945 223.46088,255.52072 C 224.28185,247.8546 222.95307,245.99232 216.67857,246.01531 C 211.35212,246.03483 210.43658,246.6939 209.62893,251.09007 C 208.65725,256.37912 204.99502,259.42315 200.48419,258.69115 C 195.51078,257.88407 188.05945,252.2665 184.65216,246.75535 C 181.8701,242.25546 181.8193,241.9207 182.51346,232.66189 L 183.22451,223.17781 L 187.67004,219.98527 C 190.11508,218.22938 194.67706,216.19247 197.80778,215.45881 C 203.03727,214.23332 203.76884,214.28239 206.80716,216.06244 C 210.88766,218.45307 211,218.45298 211,216.05902 C 211,213.4171 211.77558,213.07562 221.25458,211.54404 C 225.78956,210.8113 230.47841,209.89556 231.67425,209.50907 C 233.41406,208.94677 234.13665,209.37519 235.2906,211.65318 C 236.08376,213.21893 237.03609,216.075 237.40689,218 C 237.7777,219.925 239.36259,222.99781 240.92888,224.82847 L 243.77667,228.15694 L 245.38833,225.85596 C 247.65672,222.61738 247.39641,218.32039 244.5,211.19228 C 243.125,207.80838 242,204.28965 242,203.37286 C 242,201.64045 247.12247,194.89283 252.7467,189.21667 C 255.47817,186.45998 256,185.18941 256,181.29541 C 256,178.36699 255.38468,175.97756 254.33062,174.81284 C 252.76724,173.08532 252.7804,172.88106 254.53792,171.59593 C 255.57009,170.84119 256.91628,168.71084 257.52945,166.86183 C 258.30323,164.5285 260.37892,162.29767 264.31422,159.56998 C 269.65455,155.8684 269.88926,155.53511 268.35193,153.83638 C 266.83378,152.15885 266.88675,151.7828 269.10986,148.45539 C 271.22582,145.28835 271.87943,144.93619 274.80766,145.38547 C 279.62685,146.12489 280.93608,145.25194 281.64356,140.82756 C 282.19037,137.408 282.79214,136.66686 286.09467,135.34544 C 289.54342,133.96553 289.85783,133.53914 289.3391,130.94552 C 288.03538,124.42688 289.7066,122.69082 299.35084,120.54545 L 302.20168,119.91128 L 296.6777,115.95564 C 293.63951,113.78004 290.93447,112 290.6665,112 C 290.39853,112 288.36145,114.87833 286.13966,118.39629 C 282.33826,124.41538 277.56327,129 275.09563,129 C 274.49303,129 274,128.5868 274,128.08179 C 274,127.57677 273.73447,126.47163 273.40994,125.62591 C 273.03275,124.64295 274.45024,122.43449 277.33931,119.50397 C 285.58793,111.13698 284.44783,105.91196 273.28021,100.90139 C 268.54299,98.775939 265.05402,96.20926 260.80683,91.725276 C 256.69335,87.382453 255.10004,86.194885 255.53777,87.797988 C 255.88288,89.061881 255.63081,90.739925 254.97761,91.526974 C 253.48458,93.325967 250.96846,92.165738 245.93074,87.355309 C 243.07145,84.625022 241.10097,83.744084 236.02444,82.926533 C 227.59386,81.568828 225.62274,82.326679 229.51415,85.429583 C 232.04363,87.446524 232.25886,87.983162 231.09889,89.380848 C 230.00829,90.694942 229.98967,91.560858 230.99963,93.999096 C 231.68328,95.649593 232.56581,97 232.96081,97 C 233.94859,97 236,101.68444 236,103.94006 C 236,104.95534 235.3214,106.04643 234.49199,106.3647 C 233.23754,106.84608 233.0942,108.37737 233.63952,115.47169 C 234.08702,121.29352 233.95392,124 233.22011,124 C 231.68266,124 228.06675,119.13601 227.33793,116.08752 C 226.9977,114.66438 226.09592,112.2625 225.33398,110.75 C 224.1403,108.38047 223.34366,108 219.57587,108 C 216.65125,108 213.31437,107.00647 209.5,105 C 206.3633,103.35 202.98491,102 201.99246,102 C 200.74132,102 199.7064,100.58656 198.6174,97.390536 C 196.83914,92.171638 197.16726,91.096128 202.58305,84.391676 C 206.24262,79.861329 209.02656,78.476648 216.48858,77.475318 L 221.47716,76.8059 L 218.61893,75.308319 C 216.18569,74.033419 215.96634,73.605088 217.14374,72.427691 C 217.90441,71.667014 219.94558,70.760885 221.67966,70.414069 C 224.41805,69.866389 224.8764,70.080757 225.16626,72.044752 C 225.43865,73.890338 226.69485,74.642858 232,76.138477 C 245.36956,79.907597 248.10764,78.772055 248.31838,69.370897 C 248.43308,64.254255 248.02813,62.88778 245.1664,58.73466 C 241.5687,53.513459 239.02103,51.50983 234.59441,50.420264 C 232.38941,49.877527 231.37307,50.136899 230.37929,51.495964 C 229.3174,52.948196 228.16496,53.177643 224.28488,52.709354 C 221.6532,52.391734 217.8125,51.421154 215.75,50.552511 C 212.49479,49.181546 212,48.538345 212,45.67771 C 212,43.865212 212.60458,41.555451 213.3435,40.544907 C 214.64052,38.771127 214.92598,38.786624 221.5935,40.992802 C 240.87193,47.371721 241.31212,47.625195 253.97581,59.639442 C 260.52204,65.849957 266.9274,71.194658 268.20994,71.516555 C 269.49248,71.838453 273.59402,71.966413 277.32446,71.800912 L 284.10709,71.5 L 277.22075,64.496403 C 271.60879,58.788881 270.21076,56.719501 269.66622,53.314109 C 269.29871,51.015826 269.39102,48.092444 269.87136,46.817706 C 271.32219,42.967443 269.59552,40.39092 264.37158,38.610943 C 261.74162,37.714827 256.61741,35.185673 252.98444,32.990601 C 247.10738,29.439627 241.52705,27.576509 227.71463,24.55371 C 226.04393,24.188083 224.56791,22.993726 224.02631,21.56921 C 223.52969,20.262998 222.64561,18.899008 222.06168,18.538122 C 221.47776,18.177236 221,17.175379 221,16.311773 C 221,14.96599 222.03617,14.839875 228.25,15.429351 C 235.2564,16.094015 235.42027,16.05996 233.12714,14.415807 C 230.04099,12.20306 221.57834,9 218.8183,9 C 217.63016,9 213.92249,7.6851384 210.57903,6.0780852 L 204.5,3.1561705 L 190,5.0631823 C 182.025,6.1120389 172.35,6.9037202 168.5,6.8224742 C 160.86673,6.6613905 157.20252,7.9875787 153.07569,12.404986 C 151.29736,14.308525 149.64932,15 146.89079,15 C 141.04086,15 138.01172,16.60885 131,23.439978 C 124.46938,29.8024 122.68965,30.704987 110,34.090113 L 105.5,35.290545 L 113,36.768204 C 117.125,37.580916 122.13542,38.303044 124.13426,38.372931 C 126.68371,38.462071 128.61772,39.348576 130.61347,41.342852 C 135.2797,46.005622 138.47348,47.240322 142.77688,46.045158 C 148.21146,44.535839 153.10212,44.757402 154.42977,46.573073 C 155.45598,47.976498 156.42682,47.809768 163.43186,45.027067 C 173.45003,41.047424 176.72608,41.602533 167.74114,45.757249 C 160.5007,49.105291 160.40656,49.222214 159.56747,55.909581 C 159.26315,58.33485 158.79485,60.538488 158.52678,60.806553 C 158.25871,61.074619 155.1628,59.877807 151.64698,58.146973 C 148.13115,56.416138 144.45317,55 143.47367,55 C 142.49418,55 140.0744,53.25087 138.09639,51.113045 C 135.3721,48.168654 132.83762,46.713688 127.64466,45.113045 C 116.63783,41.720367 111.81646,42.825067 119.8169,46.906588 C 123.99847,49.039865 126.6523,51.681032 125.63571,52.697624 C 125.2786,53.054735 122.88127,52.693161 120.30832,51.894127 C 116.97771,50.8598 115.15898,49.585662 113.9942,47.470668 C 110.81304,41.694399 103.51322,40.074242 98.084755,43.939649 C 95.032405,46.113114 92.869664,46.258617 88.852121,44.560795 C 87.780638,44.107984 86.468963,44.653628 85.102121,46.12076 C 82.426535,48.992665 82.460314,49.373209 85.536971,51.019786 C 86.932305,51.766547 87.935046,53.080087 87.765283,53.938766 C 87.521508,55.171812 86.016271,55.5 80.604682,55.5 C 75.495321,55.5 73.572727,55.881479 73.044919,57 C 72.655617,57.825 71.58625,59.998968 70.668549,61.83104 C 68.1033,66.952223 68.511315,68.897868 72.5,70.564447 C 76.254636,72.133234 77.385283,74.595522 73.936934,73.693759 C 72.802248,73.397032 69.989748,74.009665 67.686934,75.055165 C 65.38412,76.100666 62.289058,76.965959 60.809017,76.978038 C 59.328976,76.990117 57.827112,77.470721 57.471542,78.046047 C 57.029964,78.760535 58.516836,78.842498 62.162525,78.304634 C 65.098136,77.871532 69.75,77.513311 72.5,77.508588 C 76.649456,77.501461 77.591782,77.159782 78.039546,75.5 C 78.956702,72.10027 82.959684,72.592919 90.271276,77.005364 C 93.995477,79.252869 97.553151,80.776168 98.177216,80.390474 C 98.997659,79.883413 99.148076,81.276339 98.720375,85.420366 C 98.162381,90.826801 98.323536,91.406549 101.56469,95.652693 C 103.45439,98.128338 105.27942,101.2651 105.6203,102.62328 C 106.19994,104.93275 106.35679,104.98709 108.04182,103.46215 C 109.72075,101.94274 109.94723,101.9907 111.36453,104.1658 C 112.20107,105.44961 114.35196,109.64065 116.14428,113.47923 C 118.85156,119.27735 119.36337,121.47736 119.16859,126.47923 C 118.97141,131.54245 118.45602,133.05664 115.92798,136 C 114.2746,137.925 111.82986,141.75672 110.49523,144.51493 C 108.30225,149.04704 108.05666,150.89051 107.9444,163.66268 C 107.81603,178.26847 108.46501,181.37804 111.86705,182.4578 C 115.55742,183.62908 116.83096,186.40161 117.85788,195.5 C 119.30234,208.29774 126.77299,229.12167 131.75956,234.25 C 135.96752,238.57759 136.62209,238.76604 137.52831,235.91082 C 138.00378,234.41274 137.294,232.70495 135.01974,229.87494 C 132.53976,226.78893 131.73775,224.68212 131.34214,220.21412 C 131.06387,217.07135 130.00379,212.25 128.98641,209.5 C 125.07488,198.9271 126.20969,199.99962 133.01106,213.30374 C 138.66715,224.3676 140.7466,227.50795 143.48747,229.12511 C 146.50468,230.9053 147.26911,232.28172 149.9833,240.82137 C 152.76836,249.58397 153.54722,250.94892 158.21261,255.2432 C 162.84802,259.50988 175.0637,266.54928 183.78532,269.9797 C 186.60953,271.09054 187.60877,271.02923 190.9048,269.54293 L 194.73897,267.81396 L 199.39301,271.36647 C 204.59475,275.33705 209.40691,276.98614 215.81574,276.99442 C 221.3289,277.00155 224,278.44736 224,281.4244 C 224,284.92148 226.66081,287.44985 235,291.8769 C 243.64114,296.46425 248.88131,297.11869 252,294 z M 264,252.5 C 264,250.86656 258.53713,250.32189 257.5862,251.86052 C 256.75353,253.20782 258.07926,254 261.16667,254 C 263.01852,254 264,253.48039 264,252.5 z M 286.14733,248.86601 C 289.3663,247.69231 292,246.37912 292,245.9478 C 292,245.51647 292.27233,244.45389 292.60518,243.5865 C 293.12408,242.23427 292.51817,242.10007 288.35518,242.64523 C 281.44264,243.55045 278,245.50544 278,248.52568 C 278,251.5429 278.72288,251.5731 286.14733,248.86601 z M 271.27363,245.21476 C 272.24912,244.35263 272.67544,243.27544 272.22099,242.82099 C 271.39543,241.99543 257.83608,239.78595 255,240.01485 C 254.175,240.08143 249.5625,240.08546 244.75,240.02381 C 239.9375,239.96215 236.00689,240.26907 236.01531,240.70585 C 236.0823,244.17993 241.42081,246.13289 248.76943,245.37163 C 252.86305,244.94755 255.49978,245.22144 258,246.33044 C 262.07913,248.13979 268.58246,247.59316 271.27363,245.21476 z M 302.23422,241.94012 C 304.75555,239.57776 305.04409,238.98797 303.5,239.3528 C 302.4,239.61271 299.76865,240.11827 297.65256,240.47627 C 293.92064,241.10764 293.85774,241.18532 295.55755,243.06359 C 297.87427,245.62354 298.39678,245.53562 302.23422,241.94012 z M 376.96633,149.86581 C 371.50348,128.46397 361.78398,103.81602 359.6492,105.9508 C 359.08498,106.51502 358.59559,110.91941 358.56167,115.73833 C 358.50821,123.33337 358.84994,125.16576 361.1281,129.5 C 362.57356,132.25 365.51189,137.875 367.65773,142 C 372.00689,150.36051 377.94961,159.38372 378.64725,158.68608 C 378.89721,158.43613 378.14079,154.467 376.96633,149.86581 z M 355.96419,99.543153 C 356.9505,98.354718 356.02371,96.374119 350.93388,88.793153 C 339.96739,72.459272 334.08871,65.26063 323.67353,55.411952 C 304.05385,36.859434 286.07938,24.978989 263.02957,15.328594 C 256.17083,12.457007 250.40015,10.266515 250.20583,10.460833 C 249.67316,10.993509 252.90757,17.061336 255.74018,20.843389 C 257.95248,23.797215 258.66696,24.130865 261.87212,23.706909 C 263.86746,23.442981 266.44221,22.916853 267.5938,22.537736 C 269.2437,21.994568 271.46976,23.35674 278.0938,28.962919 C 286.17694,35.803987 297.0932,41.983013 303.63388,43.419586 C 306.77973,44.110532 309.88451,46.813971 311.78602,50.517937 C 312.75433,52.404112 312.55801,52.510701 308.77929,52.150343 C 304.4078,51.733454 304.40251,51.794643 308.34178,57.206528 C 310.47936,60.14321 315.16965,62.255865 317.5359,61.347851 C 319.77789,60.487517 323.81446,63.620173 325.42228,67.468234 C 326.60422,70.297011 327.6991,71.141912 331.6775,72.295285 C 336.84308,73.792835 338.9588,76.366525 338.98526,81.1849 C 338.99337,82.661596 339.47128,85.109356 340.04728,86.624367 C 341.75975,91.128504 351.25846,100.80256 354.12756,100.96456 C 354.47271,100.98405 355.29919,100.34442 355.96419,99.543153 z M 71.020056,85.475834 C 71.715776,84.637543 72.034417,83.701084 71.728147,83.394814 C 70.962872,82.629538 67,84.842551 67,86.035184 C 67,87.534726 69.613074,87.171143 71.020056,85.475834 z M 53.791194,77.145061 C 54.121952,76.138944 53.626917,75.974796 51.868313,76.507456 C 48.047082,77.664861 47.090629,79.199686 50.422881,78.826947 C 52.030466,78.647126 53.546207,77.890278 53.791194,77.145061 z"
     id="path2613" />
</svg>
